<svg width="164" height="164" viewBox="0 0 164 164" fill="none" xmlns="http://www.w3.org/2000/svg">
<path d="M82 164C127.287 164 164 127.287 164 82C164 36.7127 127.287 0 82 0C36.7127 0 0 36.7127 0 82C0 127.287 36.7127 164 82 164Z" fill="#239FDB"/>
<path d="M99.2568 162.065C100.828 161.759 102.39 161.408 103.941 161.01C106.572 160.277 109.164 159.413 111.709 158.421C114.259 157.435 116.758 156.321 119.196 155.085C121.634 153.843 124.008 152.48 126.31 151.001C128.608 149.524 130.83 147.934 132.97 146.236C135.114 144.534 137.172 142.725 139.136 140.817C141.094 138.914 142.956 136.914 144.714 134.825C146.477 132.734 148.134 130.555 149.679 128.299C151.223 126.045 152.653 123.715 153.963 121.318C155.274 118.919 156.463 116.456 157.527 113.938C158.593 111.419 159.533 108.849 160.343 106.237C161.036 103.951 161.628 101.635 162.118 99.2969L113.404 50.5827C104.717 41.8955 93.3728 37.5566 82.0133 37.5566C70.6532 37.5566 59.2831 41.8948 50.596 50.5827C33.2216 67.9571 33.2216 96.0295 50.596 113.404L99.2568 162.065Z" fill="#3C63AD"/>
<path d="M82.0062 37.5625C93.3662 37.5625 104.723 41.9013 113.41 50.5885C130.785 67.9629 130.785 96.0354 113.41 113.41C96.0358 130.784 67.9633 130.784 50.5889 113.41C33.2145 96.0354 33.2145 67.9629 50.5889 50.5885C59.2761 41.9013 70.6461 37.5625 82.0062 37.5625ZM102.239 68.3258C101.592 68.3851 100.963 68.6338 100.451 69.0332L75.4932 87.7581L63.9219 76.1868C61.4115 73.5722 56.4759 78.5079 59.0905 81.0182L72.7572 94.6849C73.9063 95.8321 75.9135 95.9763 77.2148 95.0051L104.548 74.5051C106.849 72.8307 105.431 68.3665 102.586 68.3258C102.471 68.3199 102.355 68.3199 102.239 68.3258L102.239 68.3258Z" fill="white"/>
</svg>
