<svg width="164" height="164" viewBox="0 0 164 164" fill="none" xmlns="http://www.w3.org/2000/svg">
<g clip-path="url(#clip0)">
<path d="M82 164C127.287 164 164 127.288 164 82.0003C164 36.713 127.287 0 82 0C36.7126 0 0 36.713 0 82.0003C0 127.288 36.7126 164 82 164Z" fill="#FFAE35"/>
<path d="M108.306 159.556C109.448 159.204 110.583 158.827 111.709 158.425C114.259 157.436 116.758 156.32 119.196 155.082C121.632 153.84 124.004 152.477 126.303 150.998C128.603 149.521 130.828 147.931 132.97 146.233C135.111 144.535 137.165 142.731 139.126 140.828C141.09 138.92 142.957 136.916 144.721 134.822C146.48 132.734 148.134 130.559 149.676 128.305C151.22 126.046 152.65 123.711 153.96 121.309C155.27 118.91 156.46 116.448 157.524 113.931C158.275 112.088 158.96 110.219 159.576 108.326L112.75 61.5003H66.625V66.6253L61.5 61.5003H51.25V71.7503L56.375 76.8753H51.25V87.1253L56.375 92.2503H51.25V102.5L108.306 159.556Z" fill="#F39200"/>
<path d="M51.25 61.5003V71.7503H61.5V61.5003H51.25ZM66.625 61.5003V71.7503H112.75V61.5003H66.625ZM51.25 76.8753V87.1253H61.5V76.8753H51.25ZM66.625 76.8753V87.1253H112.75V76.8753H66.625ZM51.25 92.2503V102.5H61.5V92.2503H51.25ZM66.625 92.2503V102.5H112.75V92.2503H66.625Z" fill="white"/>
</g>
<defs>
<clipPath id="clip0">
<rect width="164" height="164" fill="white"/>
</clipPath>
</defs>
</svg>
