<svg width="164" height="164" viewBox="0 0 164 164" fill="none" xmlns="http://www.w3.org/2000/svg">
<g clip-path="url(#clip0)">
<path d="M82 164C127.287 164 164 127.288 164 82.0003C164 36.713 127.287 0 82 0C36.7126 0 0 36.713 0 82.0003C0 127.288 36.7126 164 82 164Z" fill="#FF3C47"/>
<path d="M96.1338 162.759C98.7599 162.302 101.362 161.718 103.931 161.007C106.565 160.277 109.161 159.415 111.709 158.425C114.259 157.436 116.758 156.32 119.196 155.082C121.632 153.84 124.004 152.477 126.303 150.998C128.603 149.521 130.828 147.931 132.97 146.233C135.111 144.535 137.165 142.731 139.126 140.828C141.09 138.92 142.957 136.916 144.721 134.822C146.48 132.734 148.134 130.559 149.676 128.305C151.22 126.046 152.65 123.711 153.96 121.309C155.091 119.203 156.13 117.049 157.073 114.852L92.8606 50.6397C90.075 47.8543 86.2326 46.1253 82 46.1253C73.5347 46.1253 66.6251 53.0353 66.625 61.5003C66.625 65.733 68.3538 69.5755 71.1394 72.3609L80.8289 82.0504C61.7431 82.5797 46.125 95.8566 46.125 112.75L96.1338 162.759Z" fill="#E30613"/>
<path d="M82 46.1253C73.5347 46.1253 66.6251 53.0353 66.625 61.5003C66.6251 69.9658 73.5347 76.8753 82 76.8753C90.4653 76.8753 97.3749 69.9658 97.375 61.5003C97.3749 53.0353 90.4653 46.1253 82 46.1253ZM82 50.5196C88.0912 50.5196 92.9807 55.4092 92.9807 61.5003C92.9807 67.5919 88.0912 72.491 82 72.491C75.9088 72.491 71.0193 67.5919 71.0193 61.5003C71.0193 55.4092 75.9088 50.5191 82 50.5196ZM82 82.0003C62.3811 82.0003 46.125 95.5093 46.125 112.75H51.25C51.25 98.7601 64.7086 87.1253 82 87.1253C99.2914 87.1253 112.75 98.7601 112.75 112.75H117.875C117.875 95.5093 101.619 82.0003 82 82.0003Z" fill="white"/>
</g>
<defs>
<clipPath id="clip0">
<rect width="164" height="164" fill="white"/>
</clipPath>
</defs>
</svg>
